<svg width="532" height="186" viewBox="0 0 532 186" fill="none" xmlns="http://www.w3.org/2000/svg">
<rect width="532" height="186" rx="20" fill="white"/>
<path d="M41 151L70.9287 115.5L90.7031 136L126.511 97L168.197 151C180.133 133 203.577 97 201.867 97C200.157 97 220.751 133 231.261 151L288.981 56.5L328.53 151L360.062 115.5L378.233 151L423.66 71L437.556 115.5L491 23" stroke="#D3D3D3" stroke-width="4"/>
<circle cx="39" cy="152" r="4" fill="white" stroke="#D3D3D3" stroke-width="2"/>
<circle cx="70" cy="117" r="4" fill="white" stroke="#D3D3D3" stroke-width="2"/>
<circle cx="91" cy="134" r="4" fill="white" stroke="#D3D3D3" stroke-width="2"/>
<circle cx="126" cy="98" r="4" fill="white" stroke="#D3D3D3" stroke-width="2"/>
<circle cx="168" cy="149" r="4" fill="white" stroke="#D3D3D3" stroke-width="2"/>
<circle cx="202" cy="98" r="4" fill="white" stroke="#D3D3D3" stroke-width="2"/>
<circle cx="231" cy="150" r="4" fill="white" stroke="#D3D3D3" stroke-width="2"/>
<circle cx="329" cy="150" r="4" fill="white" stroke="#D3D3D3" stroke-width="2"/>
<circle cx="438" cy="115" r="4" fill="white" stroke="#D3D3D3" stroke-width="2"/>
<circle cx="423" cy="70" r="4" fill="white" stroke="#D3D3D3" stroke-width="2"/>
<circle cx="289" cy="57" r="4" fill="white" stroke="#D3D3D3" stroke-width="2"/>
<circle cx="359" cy="116" r="4" fill="white" stroke="#D3D3D3" stroke-width="2"/>
<circle cx="379" cy="150" r="4" fill="white" stroke="#D3D3D3" stroke-width="2"/>
<circle cx="493" cy="20" r="4" fill="white" stroke="#D3D3D3" stroke-width="2"/>
</svg>
